<mxfile host="Electron" modified="2023-04-24T07:51:52.729Z" agent="Mozilla/5.0 (Windows NT 10.0; Win64; x64) AppleWebKit/537.36 (KHTML, like Gecko) draw.io/21.2.1 Chrome/112.0.5615.87 Electron/24.1.2 Safari/537.36" etag="Wyqqq3ZChGGLBodSM6dT" version="21.2.1" type="device">
  <diagram name="第 1 页" id="MwcvgPjpv1xRaVWBq4B6">
    <mxGraphModel dx="292" dy="177" grid="1" gridSize="10" guides="1" tooltips="1" connect="1" arrows="1" fold="1" page="1" pageScale="1" pageWidth="827" pageHeight="1169" math="0" shadow="0">
      <root>
        <mxCell id="0" />
        <mxCell id="1" parent="0" />
        <mxCell id="KEKnvXTgJnhLiNOMU1un-3" value="SMO" style="rounded=0;whiteSpace=wrap;html=1;" parent="1" vertex="1">
          <mxGeometry x="80" y="160" width="70" height="40" as="geometry" />
        </mxCell>
        <mxCell id="KEKnvXTgJnhLiNOMU1un-4" value="" style="edgeStyle=none;orthogonalLoop=1;jettySize=auto;html=1;rounded=0;" parent="1" edge="1">
          <mxGeometry width="80" relative="1" as="geometry">
            <mxPoint x="20" y="170" as="sourcePoint" />
            <mxPoint x="80" y="170" as="targetPoint" />
            <Array as="points" />
          </mxGeometry>
        </mxCell>
        <mxCell id="KEKnvXTgJnhLiNOMU1un-5" value="" style="edgeStyle=none;orthogonalLoop=1;jettySize=auto;html=1;rounded=0;" parent="1" edge="1">
          <mxGeometry width="80" relative="1" as="geometry">
            <mxPoint x="20" y="190" as="sourcePoint" />
            <mxPoint x="80" y="190" as="targetPoint" />
            <Array as="points" />
          </mxGeometry>
        </mxCell>
        <mxCell id="KEKnvXTgJnhLiNOMU1un-6" value="u&lt;sub&gt;α&lt;/sub&gt;" style="text;html=1;align=center;verticalAlign=middle;resizable=0;points=[];autosize=1;strokeColor=none;fillColor=none;" parent="1" vertex="1">
          <mxGeometry x="20" y="140" width="40" height="30" as="geometry" />
        </mxCell>
        <mxCell id="KEKnvXTgJnhLiNOMU1un-7" value="u&lt;span style=&quot;font-size: 10px;&quot;&gt;&lt;sub&gt;β&lt;/sub&gt;&lt;/span&gt;" style="text;html=1;align=center;verticalAlign=middle;resizable=0;points=[];autosize=1;strokeColor=none;fillColor=none;" parent="1" vertex="1">
          <mxGeometry x="25" y="165" width="30" height="30" as="geometry" />
        </mxCell>
        <mxCell id="KEKnvXTgJnhLiNOMU1un-12" value="" style="edgeStyle=none;orthogonalLoop=1;jettySize=auto;html=1;rounded=0;exitX=1;exitY=0.25;exitDx=0;exitDy=0;entryX=0;entryY=0.5;entryDx=0;entryDy=0;" parent="1" source="KEKnvXTgJnhLiNOMU1un-3" target="KEKnvXTgJnhLiNOMU1un-14" edge="1">
          <mxGeometry width="80" relative="1" as="geometry">
            <mxPoint x="153" y="170" as="sourcePoint" />
            <mxPoint x="200" y="170" as="targetPoint" />
            <Array as="points" />
          </mxGeometry>
        </mxCell>
        <mxCell id="KEKnvXTgJnhLiNOMU1un-13" value="" style="edgeStyle=none;orthogonalLoop=1;jettySize=auto;html=1;rounded=0;" parent="1" edge="1">
          <mxGeometry width="80" relative="1" as="geometry">
            <mxPoint x="150" y="190" as="sourcePoint" />
            <mxPoint x="228" y="190" as="targetPoint" />
            <Array as="points" />
          </mxGeometry>
        </mxCell>
        <mxCell id="KEKnvXTgJnhLiNOMU1un-21" style="edgeStyle=orthogonalEdgeStyle;rounded=0;orthogonalLoop=1;jettySize=auto;html=1;exitX=1;exitY=0.5;exitDx=0;exitDy=0;entryX=0;entryY=0.25;entryDx=0;entryDy=0;" parent="1" source="KEKnvXTgJnhLiNOMU1un-14" target="KEKnvXTgJnhLiNOMU1un-20" edge="1">
          <mxGeometry relative="1" as="geometry" />
        </mxCell>
        <mxCell id="KEKnvXTgJnhLiNOMU1un-14" value="" style="shape=sumEllipse;perimeter=ellipsePerimeter;whiteSpace=wrap;html=1;backgroundOutline=1;" parent="1" vertex="1">
          <mxGeometry x="190" y="165" width="10" height="10" as="geometry" />
        </mxCell>
        <mxCell id="KEKnvXTgJnhLiNOMU1un-23" style="edgeStyle=orthogonalEdgeStyle;rounded=0;orthogonalLoop=1;jettySize=auto;html=1;exitX=1;exitY=0.5;exitDx=0;exitDy=0;entryX=0;entryY=0.75;entryDx=0;entryDy=0;" parent="1" source="KEKnvXTgJnhLiNOMU1un-15" target="KEKnvXTgJnhLiNOMU1un-20" edge="1">
          <mxGeometry relative="1" as="geometry" />
        </mxCell>
        <mxCell id="KEKnvXTgJnhLiNOMU1un-15" value="" style="shape=sumEllipse;perimeter=ellipsePerimeter;whiteSpace=wrap;html=1;backgroundOutline=1;" parent="1" vertex="1">
          <mxGeometry x="228" y="185" width="10" height="10" as="geometry" />
        </mxCell>
        <mxCell id="KEKnvXTgJnhLiNOMU1un-16" value="&lt;sub&gt;&lt;span style=&quot;font-size: 12px;&quot;&gt;i&lt;/span&gt;α&lt;/sub&gt;" style="text;html=1;align=center;verticalAlign=middle;resizable=0;points=[];autosize=1;strokeColor=none;fillColor=none;" parent="1" vertex="1">
          <mxGeometry x="173" y="100" width="30" height="30" as="geometry" />
        </mxCell>
        <mxCell id="KEKnvXTgJnhLiNOMU1un-17" value="&lt;sub style=&quot;border-color: var(--border-color);&quot;&gt;&lt;span style=&quot;font-size: 12px;&quot;&gt;i&lt;/span&gt;β&lt;/sub&gt;" style="text;html=1;align=center;verticalAlign=middle;resizable=0;points=[];autosize=1;strokeColor=none;fillColor=none;" parent="1" vertex="1">
          <mxGeometry x="213" y="100" width="30" height="30" as="geometry" />
        </mxCell>
        <mxCell id="KEKnvXTgJnhLiNOMU1un-18" value="" style="edgeStyle=none;orthogonalLoop=1;jettySize=auto;html=1;rounded=0;" parent="1" edge="1">
          <mxGeometry width="80" relative="1" as="geometry">
            <mxPoint x="195.24" y="110" as="sourcePoint" />
            <mxPoint x="194.76000000000002" y="165" as="targetPoint" />
            <Array as="points" />
          </mxGeometry>
        </mxCell>
        <mxCell id="KEKnvXTgJnhLiNOMU1un-25" style="edgeStyle=orthogonalEdgeStyle;rounded=0;orthogonalLoop=1;jettySize=auto;html=1;exitX=1;exitY=0.25;exitDx=0;exitDy=0;entryX=0;entryY=0.25;entryDx=0;entryDy=0;" parent="1" source="KEKnvXTgJnhLiNOMU1un-20" target="KEKnvXTgJnhLiNOMU1un-24" edge="1">
          <mxGeometry relative="1" as="geometry" />
        </mxCell>
        <mxCell id="KEKnvXTgJnhLiNOMU1un-26" style="edgeStyle=orthogonalEdgeStyle;rounded=0;orthogonalLoop=1;jettySize=auto;html=1;exitX=1;exitY=0.75;exitDx=0;exitDy=0;entryX=0;entryY=0.75;entryDx=0;entryDy=0;" parent="1" source="KEKnvXTgJnhLiNOMU1un-20" target="KEKnvXTgJnhLiNOMU1un-24" edge="1">
          <mxGeometry relative="1" as="geometry" />
        </mxCell>
        <mxCell id="KEKnvXTgJnhLiNOMU1un-20" value="Sgn" style="rounded=0;whiteSpace=wrap;html=1;" parent="1" vertex="1">
          <mxGeometry x="259" y="160" width="70" height="40" as="geometry" />
        </mxCell>
        <mxCell id="KEKnvXTgJnhLiNOMU1un-28" style="edgeStyle=orthogonalEdgeStyle;rounded=0;orthogonalLoop=1;jettySize=auto;html=1;exitX=1;exitY=0.25;exitDx=0;exitDy=0;entryX=0;entryY=0.25;entryDx=0;entryDy=0;" parent="1" source="KEKnvXTgJnhLiNOMU1un-24" target="KEKnvXTgJnhLiNOMU1un-27" edge="1">
          <mxGeometry relative="1" as="geometry" />
        </mxCell>
        <mxCell id="KEKnvXTgJnhLiNOMU1un-29" style="edgeStyle=orthogonalEdgeStyle;rounded=0;orthogonalLoop=1;jettySize=auto;html=1;exitX=1;exitY=0.75;exitDx=0;exitDy=0;entryX=0;entryY=0.75;entryDx=0;entryDy=0;" parent="1" source="KEKnvXTgJnhLiNOMU1un-24" target="KEKnvXTgJnhLiNOMU1un-27" edge="1">
          <mxGeometry relative="1" as="geometry" />
        </mxCell>
        <mxCell id="KEKnvXTgJnhLiNOMU1un-24" value="低通滤波" style="rounded=0;whiteSpace=wrap;html=1;" parent="1" vertex="1">
          <mxGeometry x="363" y="160" width="70" height="40" as="geometry" />
        </mxCell>
        <mxCell id="KEKnvXTgJnhLiNOMU1un-30" style="edgeStyle=orthogonalEdgeStyle;rounded=0;orthogonalLoop=1;jettySize=auto;html=1;exitX=1;exitY=0.5;exitDx=0;exitDy=0;" parent="1" source="KEKnvXTgJnhLiNOMU1un-27" edge="1">
          <mxGeometry relative="1" as="geometry">
            <mxPoint x="560" y="180.1428571428571" as="targetPoint" />
          </mxGeometry>
        </mxCell>
        <mxCell id="KEKnvXTgJnhLiNOMU1un-27" value="角度补偿" style="rounded=0;whiteSpace=wrap;html=1;" parent="1" vertex="1">
          <mxGeometry x="456" y="160" width="70" height="40" as="geometry" />
        </mxCell>
        <mxCell id="KEKnvXTgJnhLiNOMU1un-33" value="" style="shape=image;verticalLabelPosition=bottom;labelBackgroundColor=default;verticalAlign=top;aspect=fixed;imageAspect=0;image=data:image/png,iVBORw0KGgoAAAANSUhEUgAAAB4AAABJCAYAAAAqu5btAAADHUlEQVRoge2YMUjsShSG//t4RSrRSm0kCEcbS4sgQQIWlhJri0gKW4sUW9ltLchaWAjCClpIJIVYbicWkW0EiRZauVgFsbD8b/HYudm7u8lkV+8tXg4IJ87M+eafOScz2R8kib9g//wNaAWuwBW4Av+PwCcnJ9je3h6PzJLWbrdpGAYBcH9/v+xwZaXAaZrSNE0C4OTkJA3DYKvV+n6w4zg0DINnZ2d8eHigaZqcmZnh8/Pz94FrtRpN02S73Vb/S9OUjuPQsix+fn5+Pfjy8pKWZTFN04Htu7u79Dzve8BFiq6vr0up/kFWV58/Y/+OOrDT6SAMQ7y/vwMAVlZW4DiOfgDtbMhYEAQUEYoIbdumiBAAgyDQjlEabNs2AdD3fX58fJAk4zhW8CiKvh7chdq23dfmuu7QtrHAvu8TAEWEr6+vfe31ep0ACIBJkhTG08rqw8NDHB8fAwA8z8Ps7Gxfn7m5OeVfXFyMn1xJkqj9y1vGOI6VYp3lLlRcq9Xw9PQEANjZ2dFZID3Lm1Wz2VQqRCRXQavV0u5bqPjo6Ej5GxsbuQJubm6+RnFWATQytVtOGHePDw4OlC8iWFhYyBVwf39fSvBQcDbQ6upqbpBOp9PzvLi4OBr49PRUZTKAwpd/kiQ9/efn5wvBA0+nMAyVLyKYmJjA3d3d0CBXV1c9z+vr64XggcnVfWGM8qdTSiTZp/jx8bFn2VzXxfLy8tCJp2mKKIrUmOnp6WK1gxQ3Go0eBc1mM3fmv5ddo9HQUtyXXC8vL8oXEaytreVOPLu/IoLNzU0twX3g29vbnudBJ1HWoihS/tLSUmH/oeCsFe3X7/Wrq3Yg+O3tTfmWZeUODsNQJZWIYGtra3Rw1qampnIHn5+fK9/zPG0ogP6sztZwHMda2axbu7lZrVuH2UNkb2+vnNpBiruXujzFWbW+75dWSw64ZWZvHcNeBt1rroiou/XYYJK5XwZBEChoXg6MBM4Gz1p3NcaFDgWTv5bTdV3W63W197Zta13YRwaT/30dZD/Oig6MMlb9IlCBK3AFrsAVuAJX4Ar8/fYT3BdlMsdF4CAAAAAASUVORK5CYII=;" parent="1" vertex="1">
          <mxGeometry x="540" y="150.67" width="10" height="24.33" as="geometry" />
        </mxCell>
        <mxCell id="KEKnvXTgJnhLiNOMU1un-34" value="" style="edgeStyle=none;orthogonalLoop=1;jettySize=auto;html=1;rounded=0;entryX=0.25;entryY=1;entryDx=0;entryDy=0;" parent="1" target="KEKnvXTgJnhLiNOMU1un-3" edge="1">
          <mxGeometry width="80" relative="1" as="geometry">
            <mxPoint x="340" y="170" as="sourcePoint" />
            <mxPoint x="80" y="220" as="targetPoint" />
            <Array as="points">
              <mxPoint x="340" y="220" />
              <mxPoint x="240" y="220" />
              <mxPoint x="120" y="220" />
              <mxPoint x="98" y="220" />
            </Array>
          </mxGeometry>
        </mxCell>
        <mxCell id="KEKnvXTgJnhLiNOMU1un-35" value="" style="edgeStyle=none;orthogonalLoop=1;jettySize=auto;html=1;rounded=0;entryX=0.571;entryY=1;entryDx=0;entryDy=0;entryPerimeter=0;" parent="1" target="KEKnvXTgJnhLiNOMU1un-3" edge="1">
          <mxGeometry width="80" relative="1" as="geometry">
            <mxPoint x="349" y="190" as="sourcePoint" />
            <mxPoint x="107" y="225" as="targetPoint" />
            <Array as="points">
              <mxPoint x="349" y="245" />
              <mxPoint x="249" y="245" />
              <mxPoint x="129" y="245" />
              <mxPoint x="120" y="245" />
            </Array>
          </mxGeometry>
        </mxCell>
        <mxCell id="KEKnvXTgJnhLiNOMU1un-36" value="" style="shape=image;verticalLabelPosition=bottom;labelBackgroundColor=default;verticalAlign=top;aspect=fixed;imageAspect=0;image=data:image/png,iVBORw0KGgoAAAANSUhEUgAAADQAAAA+CAYAAABk4ziNAAADnklEQVRoge2av0vzQBzGH1/eUQgKUlwchOvk5iISUXAQFyUdBMFBiJurOChdlBShi0MdOohCnJV0E4cEdUwFJ2mCjg0di39A3kFSkjbNXX6Z8JIPFHrp5Zt7cnfPfXPphG3bNv4j/mTdgKQpBOWdQlDeKQTlnUJQ3ikE5Z2/wwc0TcPd3R3m5+cDT9R1Hff394F1LMtCtVodG+vr6wvn5+eYnZ0N0WQK9hCCINiEEJsQYgPw/Ti/02g0GmPjODG63S41ThhGBLkRBMHTCFEU7U6nE/oijUbDI0SSpMSFOAQKkiTJI0iSpEgX6Xa7gx7RdT1SDFZG5pCb5eXlRIb1zc0NTNOEoihYXFxMJOZYgtTquu7pIZ7nQ98xp3cEQYh818OQum0fHh4CAK6urtK+1A80xW6XYnE2N4qixJp7UUhVEM/zkYZpHEIJAsBs245DKooSu5FhoM6hUqnkKX9/f1OHsWVZuL29hSAI2NraCj0N4pCKKfy6EbigCtrc3PSUHx8fA+u3Wi08PDxgf38/2RyNkcR7qF6vg+d5nJycJB2aicBMAQDm5uaYg9VqNby+vkJRlFiNigXNNVizhd/OCMaR2JDL0gg8sKh2r0V+PZRFRjCO0IL8sgWe50NnEWlBNQUajhHIshw3VDKwqOZ53reH8mIEbkKbgmmaaLfbAIBqtQoAuLi4SPIex4JJ0NLS0sgxTdNwfX2N7e1tlMvlxBsWFaY5NDU15Sl/fHyg2WyCEIJ6vZ5Kw6LCJIjjOE/57OwMpmnmxwhcMAkaHnKmaUIQBOzt7SXWEMMw8PT0hH6/D47jUKlUIiW3kTIFQkhiRmAYBiqVCkRRBMdx2NjYQL/fx+rqKmq1mqduq9WiB2S1Q/fienR0lIjFyrJsE0JsURRHfhNFceSJl+VxPrSgpDICVVUDk10nKXbWOFVVmda70IJkWWY9JRBnsR4Xz73bats/29KqqlLjMgtSVZUpIAuyLDP1tiNIlmXfYekHcy63trbGWpXK+/s7gNENGD9M00Sz2cTLywtT7ExeeH1+fgLwz0CGIYTg8vKSOXYmgtbX16l1NE0bfA+zwT9h29n8G2tlZQW9Xg9vb2+YnJwcHHfe+gFAp9NBr9eDYRiwLAs7OzvUoZeZIAA4ODjA8/MzFhYWBsemp6dxfHyMcrmMdruN3d1dlEolzMzM4PT0lNpbmQpKg//uLXghKO8UgvJOISjvFILyTiEo7xSC8s4/NA+xt8arr/oAAAAASUVORK5CYII=;" parent="1" vertex="1">
          <mxGeometry x="190" y="195" width="16.78" height="20" as="geometry" />
        </mxCell>
        <mxCell id="KEKnvXTgJnhLiNOMU1un-37" value="" style="shape=image;verticalLabelPosition=bottom;labelBackgroundColor=default;verticalAlign=top;aspect=fixed;imageAspect=0;image=data:image/png,iVBORw0KGgoAAAANSUhEUgAAADQAAAA+CAYAAABk4ziNAAADnklEQVRoge2aMU7rQBCGf57eFSJEQwEyHIAuWiTaNEiWOADSlrSmiQQNchpaU1EEyRRUICMoKCKnoKDYHMBEorQLSg4wr0DOixPHu2uvcYTySRQO6/H+O7PjmU3WiIjwi/jT9ARMsxK07KwELTsrQcvOStCysxK07Pyd/WA4HOL29hZbW1uFNwohcH9/XzgmSRKcnZ0ttPXx8YGLiwtsbGxoTFkCzWDbNlmWRZZlEYDcv/T/MjzPW2gntRHHsdSODnOCprFtOzMJzjlFUaT9EM/zMkJc1zUuJKVQkOu6GUGu65Z6SBzHE48IIUrZUGVuD03TbreNhHW/38d4PEYQBNjb2zNicyFFaoUQGQ8xxrRXLPWObdulV12H2tP2yckJAODq6qruR30jUzydpVQy2zRBEFTae2WoVRBjrFSYVkFLEADltJ1myCAIKk9SB+keWl9fz1x/fX1JwzhJEtzc3MC2bRweHmpvgyrUkhR+PBFMIRXU6XQy1y8vL4XjHx8f8fDwgOPjY7M1miLGPXR5eQnGGLrdrmnTShRWCgCwubmpbKzX6+H19RVBEFSaVCVkWUO1WvjpimARxkKuyUSQQUX19Lsoz0NNVASL0BaUVy0wxrSriLqQJgUZaSLwfb+qqQxJkqDf70+u2+02Dg4O5DeqqGaM5XqorkTAOSfOOYVhSEII8n2fLMsix3Gk92oLAjDpOjnnZFlWqbY8DyEEMcZyu9r0WbLWXUmQ4zhzgsIwJABKq6bKIjFE/883ZC28kqDZswXf940nAs55YWWuekqkJGj61CbdR6kwE8RxXLgP02jgnEttKQmarRYAGE0EjuNkFieKIhJCkBCCoigiy7KUG8VSgkwmAiLKTDYvGnS6XiVBRNmXq8lEkBduqXfKJB9tQaYrAs/zpCWT6tEzUYni9Pz8XPeWQgaDAY6OjqTjxuMxRqOR3KDqSoZhSGEYqg5XRrbyURRNIkPlPFy5llOqozQZDodzhzCzXF9fA/g+rFFp6Rv9wuv5+Vk6Ju1+T09P1YyaCp0yyKqNNIWrvFBTGhMUxzExxiaV9Szpl2W6TWPlfqgsg8EAnU4H3W4XvV4P+/v7aLVa2N7extvbG1qtFp6enrCzs6Nn2NSK62Lb9ly1EUVR5QqkMQ99fn7Orb62N3JoJMuNRiPs7u7WYrsRQXd3d7W81wBgjejnf3P6/v5uJLzyaERQnfy6n8asBC07K0HLzkrQsvPrBP0DGuhUWKz/dhIAAAAASUVORK5CYII=;" parent="1" vertex="1">
          <mxGeometry x="191" y="229.99999999999997" width="12" height="14.31" as="geometry" />
        </mxCell>
        <mxCell id="KEKnvXTgJnhLiNOMU1un-38" value="" style="edgeStyle=none;orthogonalLoop=1;jettySize=auto;html=1;rounded=0;entryX=0.5;entryY=0;entryDx=0;entryDy=0;" parent="1" target="KEKnvXTgJnhLiNOMU1un-15" edge="1">
          <mxGeometry width="80" relative="1" as="geometry">
            <mxPoint x="233.24" y="110" as="sourcePoint" />
            <mxPoint x="232.76000000000002" y="165" as="targetPoint" />
            <Array as="points" />
          </mxGeometry>
        </mxCell>
        <mxCell id="8vGvTaFM6PpEMaDAR0to-1" value="" style="shape=image;verticalLabelPosition=bottom;labelBackgroundColor=default;verticalAlign=top;aspect=fixed;imageAspect=0;image=data:image/png,iVBORw0KGgoAAAANSUhEUgAAACgAAABHCAYAAAB1XAXiAAADiklEQVRoge2Yv0vrUBTHvz7e4NhFRAfpcjcHRQeRII46aTq7SP6BDhGKoINQdJY6iIJDA92UTuKU4iAOKV0EjQ46JQSH4KTbeYPvXpKmzY+XJs8hHyik9ya3n9xz78lpxoiI8IP59b8FoigE01IIpqUQTEshmJZCMC2JBJ+enjA/P4+vr6+sfIJQTFzXpXK5TABoc3Mz7mWpiS24trZGAKhUKhEAOjw8zNJLEEuwVqsRAKpWq+S6rpC9vr7O2i9a8OrqisbHx6nVavnaq9UqlUolen19zUyOKELw8fGRyuUy9Xq9gf2tVovm5ubo8/MzEzmiCEFd18m27dABer1eprM4RlSU/Kn48YK/k17Q6XRwd3eH5eVlrK6uZuHkJ8mCbTabBIAAEGMsm13RR6IQn56eZjNLISQSXFpaAgAwxrC/v5+JUD+J00y328XCwkJWPgGKPJiWQjAtkYnatm1cXFwAQH7J2UtYkqzX68QYEx8AVK/X88jPgqGCjUaDAFCz2SSib1n8fYJYlvV/BS3LIsaYb7a4IAAyDCM3wYGbZG9vDwCwu7sr2gzDyHy5DWKg4O3tLVZWVnxtDw8PAL4fc9PT09mbcfqnlFcsuq4H2gCQLMu5hXdgiD8+PiDLsi+dXF5eiuNKpZLDtHmIcxc8xeRVA3qJfJKcnJzg5eUFAALrMhei7kCSJLH+vOsyL0IFTdPMvcTvJzTEZ2dn4nhjY8PXp2na6MM5iDB7vjkAkGmaop0/VbxtWTFUUNd1ISdJkq9PkqTcQj603PKGcH19XRzbtg3HcQIh76fb7eLm5gYAMDMzg62trdGG2Lt7vcWBoiihFU273SZJkkhRFNJ1nQzDENe0223fubxSCmOooKqqgd3Lwz6sJlQUxVeieeHLgt+YZVmBpZNIkJdcAEhVVVJVlRhjpCjKwPP5xonqbzQa4js//idBou88KMsyMcZIkqShA/KbCQs9Lzj4rMWZvUjBuPDQhv2oYRjiHFVVY60/ooTvZoZhmiYA/24fhuM4cF039q4eiaDjOAC+//XF4fz8PPbYIxGcnZ2NPOf+/h4AMDk5mWjskQgeHR2BMYbj4+NAX6fTQaVSwdvbGxhjol3TNOzs7ESOPbKXR8/Pz6jVanh/f8fExIRoX1xcxPb2NqampqBpGg4ODsSMeyv1zAWz4se/mykE01IIpqUQTEshmJZCMC2FYFr+ACD0gcXVtvFJAAAAAElFTkSuQmCC;" vertex="1" parent="1">
          <mxGeometry x="160" y="150.67000000000002" width="10" height="17.75" as="geometry" />
        </mxCell>
        <mxCell id="8vGvTaFM6PpEMaDAR0to-2" value="" style="shape=image;verticalLabelPosition=bottom;labelBackgroundColor=default;verticalAlign=top;aspect=fixed;imageAspect=0;image=data:image/png,iVBORw0KGgoAAAANSUhEUgAAACgAAABHCAYAAAB1XAXiAAAD2klEQVRoge2YP0jrUBTGPx9vcCl0KUWngkRXxUUkiqOdapzdIp07RJCCbtVBcIqDKDhUaCeloDhJioM4pHQRaurgliAORRx0O2/w3dA/6U3ykvQ55INAuGkOv55zz5eTjBER4Qfr1/8GcFMMGFQxYFDFgEEVAwZVDBhUvgCfnp4wNzeHr6+vqHgGRR7V6XQok8kQAFpbW/N6W2B5BlxdXSUAlEwmCQDt7+9HyWXLE+D29jYBoEKhQJ1Ox4a9ubmJms8d8PLyksbHx6lSqfSsFwoFSiaT9PLyEhkckQtgq9WiTCZDzWbT8XqlUqHZ2Vn6/PyMBI7IBVDTNLIsixug2WxGmsUxonjkD6QfD/jb7w31eh339/dYXFzEyspKFEy98rNhy+UyASAAJAhCNF3RJ18lPj4+jiZLHPkCXFhYAAAIgoDd3d1IgPrl22YajQbm5+ej4hlQ7INBFQMGlatRW5aFs7MzABidOXeLZ5KlUokEQbAPAFQqlUbhz7aGAqqqSgCoXC4T0Tcs/j5BTNP8v4CmaZIgCD3ZYoAASNf1kQE6NsnOzg4AoFgs2mu6rke+3ZzkCHh3d4fl5eWetcfHRwDfj7nJycnoyZj6U8omFk3TBtYAkCRJIyuvY4nf398hSVKPnVxcXNjn6+vrI0hbl7z8C2Yxo5oBu+Vq1EdHR3h+fgaAgX3pR92GD3g3fVfAarVqn29sbPwT3Obmpn1/IpFAq9VCPp9HLpfDwcEB/2Zeeg3DCDTi67pOoig6+qYsy55MnwuoKIoNqChKzzX2hOFpGBwRkSRJnkyfC8iaAwAZhmGvs6dK91q/ZFmmWq3GjR0og5qm2XCiKPZcE0WRW3LTNLl+yWLLssyFI+J08fn5uX2ezWbtc8uy8Pr6ilwuN3RfHx4e9vhlu93Gx8cHACCRSCCfz0MURZyenvIbhNckoig6DgdeNnd3xtlU1N1s/RXhaSgga5DuUrLS8GZCp/Lqum4fLEZ/0/kGZCMXC6YoCgmC4LpvVFV1HWpZgwQCJPr2QUmS7LKoquoaUJIkbnczQC8W4wr4L3LLDDN/r5N5qG919Xod6XSa+5uTkxMAQDqdxsTEhGvMUAGvr69df1Or1QAAW1tb3oKGVVoidwNnluPFoJlCAzRNk0RRJFmWHQFUVR14EfMi319Yh+n29hbZbBbFYhF7e3tYWlpCKpXC1NQUHh4ekEqlcHV1henpaX+Bw8qgk70YhuFqOW4KLYNvb28D2fGdLQeF0sWNRgMzMzNhhBpQKIDVajWyj0qhfGFtt9uhlNNJ8SfgoIoBgyoGDKoYMKh+POAfzjg+sUuk+HAAAAAASUVORK5CYII=;" vertex="1" parent="1">
          <mxGeometry x="160" y="171.12" width="10" height="17.75" as="geometry" />
        </mxCell>
      </root>
    </mxGraphModel>
  </diagram>
</mxfile>
